<svg width="27" height="27" viewBox="0 0 27 27" fill="none" xmlns="http://www.w3.org/2000/svg">
<circle cx="13.5" cy="13.5" r="13.5" fill="#FFB763" fill-opacity="0.2"/>
<path d="M17.0923 6.81928C17.0602 6.78574 17.022 6.75909 16.9797 6.74092C16.9374 6.72275 16.8919 6.71342 16.8461 6.71349C16.8002 6.71355 16.7548 6.72301 16.7125 6.74131C16.6703 6.7596 16.6321 6.78636 16.6002 6.81999C16.5359 6.88877 16.5005 6.98043 16.5016 7.07544C16.5026 7.17045 16.54 7.26128 16.6058 7.32856C17.1095 7.84327 17.4891 8.47044 17.7146 9.16054C17.9401 9.85064 18.0052 10.5848 17.905 11.305C17.892 11.3989 17.9155 11.4943 17.9704 11.5709C18.0253 11.6475 18.1073 11.6992 18.199 11.715C18.2442 11.7224 18.2905 11.7204 18.335 11.7092C18.3795 11.698 18.4213 11.6779 18.4581 11.6499C18.4948 11.6219 18.5257 11.5867 18.5489 11.5464C18.5721 11.506 18.5871 11.4614 18.5931 11.415C18.7087 10.5827 18.6333 9.73436 18.3729 8.93685C18.1124 8.13933 17.674 7.41444 17.0923 6.81928ZM9.81716 7.07356C9.76729 6.94405 9.66998 6.83942 9.54584 6.78182C9.42171 6.72422 9.28047 6.71817 9.15204 6.76495C9.02361 6.81173 8.91805 6.90766 8.85771 7.03245C8.79737 7.15725 8.78699 7.3011 8.82876 7.43356L10.3086 11.6621C10.3257 11.7094 10.3335 11.7596 10.3315 11.81C10.3295 11.8604 10.3177 11.9098 10.2968 11.9555C10.2759 12.0011 10.2464 12.0421 10.2098 12.076C10.1733 12.1099 10.1305 12.1361 10.084 12.1531C10.0375 12.17 9.98816 12.1773 9.93884 12.1746C9.88953 12.1719 9.84122 12.1593 9.79673 12.1374C9.75224 12.1155 9.71245 12.0849 9.67967 12.0472C9.64689 12.0095 9.62177 11.9655 9.60576 11.9178L8.41786 8.50356C8.36981 8.37183 8.27296 8.26464 8.14817 8.20511C8.02339 8.14558 7.88067 8.13848 7.7508 8.18534C7.62093 8.2322 7.51432 8.32927 7.45394 8.45561C7.39357 8.58195 7.38427 8.72744 7.42806 8.86071L9.21096 13.9864C7.72906 13.5757 7.21456 14.3964 7.06196 14.7657C7.02486 14.8564 7.08016 14.9514 7.17256 14.98C7.74656 15.1564 9.73596 15.8871 11.962 18.0636C12.3848 18.4771 13.0064 18.6207 13.5475 18.39L15.0581 17.7457C15.283 17.6497 15.4795 17.4954 15.6281 17.2981C15.7766 17.1008 15.8721 16.8673 15.9051 16.6207L16.0969 15.1828C16.213 14.3122 16.1309 13.4259 15.8568 12.5928L15.0973 10.2878L15.0924 10.29L14.2853 7.79499C14.2403 7.66049 14.1449 7.54971 14.0199 7.48702C13.8949 7.42433 13.7507 7.41486 13.6189 7.46071C13.487 7.50655 13.3785 7.60395 13.317 7.73147C13.2556 7.859 13.2463 8.0062 13.2913 8.14071L13.9654 10.2371C14.001 10.3495 13.9921 10.4717 13.9406 10.5775C13.8891 10.6832 13.799 10.7643 13.6898 10.8032C13.5805 10.8421 13.4606 10.8358 13.3558 10.7857C13.2509 10.7356 13.1695 10.6456 13.1289 10.535L12.0712 7.42999C12.0244 7.29615 11.9274 7.18676 11.8016 7.12588C11.6757 7.06499 11.5314 7.05761 11.4002 7.10535C11.269 7.15309 11.1618 7.25204 11.1022 7.38044C11.0425 7.50883 11.0353 7.65615 11.0821 7.78999L12.137 10.8864C12.1603 10.9456 12.1716 11.0089 12.1703 11.0727C12.169 11.1365 12.1552 11.1993 12.1295 11.2574C12.1038 11.3156 12.0669 11.3678 12.021 11.4111C11.9751 11.4543 11.9211 11.4876 11.8622 11.509C11.8033 11.5305 11.7408 11.5395 11.6785 11.5357C11.6161 11.5319 11.5551 11.5152 11.4992 11.4868C11.4433 11.4583 11.3935 11.4186 11.353 11.3701C11.3125 11.3215 11.282 11.2651 11.2634 11.2043L9.81716 7.07356ZM15.9681 8.19571C16.0075 8.17162 16.0513 8.15571 16.0968 8.14889C16.1423 8.14206 16.1887 8.14446 16.2333 8.15594C16.2779 8.16741 16.3198 8.18774 16.3567 8.21577C16.3936 8.2438 16.4247 8.27897 16.4483 8.31928L16.6555 8.67285C17.0045 9.26847 17.1917 9.94819 17.198 10.6421C17.1984 10.689 17.1898 10.7356 17.1727 10.7791C17.1555 10.8226 17.1301 10.8622 17.0979 10.8957C17.0657 10.9292 17.0274 10.9559 16.9851 10.9743C16.9428 10.9927 16.8974 11.0024 16.8515 11.0028C16.8055 11.0033 16.7599 10.9945 16.7173 10.977C16.6746 10.9595 16.6358 10.9336 16.6029 10.9008C16.5701 10.8679 16.544 10.8288 16.5259 10.7857C16.5079 10.7425 16.4984 10.6962 16.498 10.6493C16.4928 10.0819 16.3397 9.52617 16.0542 9.03928L15.8477 8.68571C15.824 8.64547 15.8084 8.60087 15.8017 8.55447C15.7949 8.50806 15.7972 8.46076 15.8084 8.41526C15.8196 8.36975 15.8394 8.32694 15.8668 8.28927C15.8942 8.2516 15.9286 8.21981 15.9681 8.19571Z" fill="white"/>
</svg>
