<svg width="12" height="12" viewBox="0 0 12 12" fill="none" xmlns="http://www.w3.org/2000/svg">
<g clip-path="url(#clip0_1301_976)">
<path d="M6.37966 0.677813L7.64153 3.55594C7.68902 3.66424 7.7647 3.75781 7.86067 3.8269C7.95664 3.89599 8.06939 3.93807 8.18716 3.94875L11.2612 4.22438C11.609 4.275 11.7478 4.70156 11.4956 4.94719L9.17997 6.8925C8.99247 7.05 8.90716 7.2975 8.95872 7.53656L9.63185 10.6875C9.69091 11.0334 9.3281 11.2978 9.01685 11.1337L6.33372 9.5625C6.23253 9.50308 6.11732 9.47175 5.99997 9.47175C5.88263 9.47175 5.76741 9.50308 5.66622 9.5625L2.9831 11.1328C2.67278 11.2959 2.30903 11.0325 2.3681 10.6866L3.04122 7.53562C3.09185 7.29656 3.00747 7.04906 2.81997 6.89156L0.503408 4.94812C0.252158 4.70344 0.390908 4.27594 0.737783 4.22531L3.81185 3.94969C3.92962 3.93901 4.04237 3.89693 4.13834 3.82784C4.23431 3.75875 4.30998 3.66517 4.35747 3.55687L5.61935 0.67875C5.77591 0.36375 6.22403 0.36375 6.37966 0.677813Z" fill="#FDD835"/>
<path d="M6.28779 3.72845L6.07404 1.60783C6.0656 1.4897 6.04123 1.2872 6.2306 1.2872C6.3806 1.2872 6.46216 1.59939 6.46216 1.59939L7.10341 3.30189C7.34529 3.9497 7.24591 4.17189 7.01248 4.30314C6.74435 4.45314 6.34873 4.33595 6.28779 3.72845Z" fill="#FFFF8D"/>
<path d="M8.93253 6.70407L10.7719 5.26875C10.8628 5.19282 11.0269 5.07188 10.8957 4.93407C10.7916 4.82532 10.5103 4.98188 10.5103 4.98188L8.90065 5.61094C8.42065 5.77688 8.1019 6.0225 8.07378 6.33188C8.03721 6.74438 8.40753 7.06219 8.93253 6.70407Z" fill="#F4B400"/>
</g>
<defs>
<clipPath id="clip0_1301_976">
<rect width="12" height="12" fill="white"/>
</clipPath>
</defs>
</svg>
