<svg width="40" height="40" viewBox="0 0 40 40" fill="none" xmlns="http://www.w3.org/2000/svg">
<path d="M19.9999 29.1667C23.8833 29.1667 27.1666 26.7333 28.5166 23.3333H11.4833C12.8166 26.7333 16.1166 29.1667 19.9999 29.1667ZM14.1666 18.3333C14.8296 18.3333 15.4655 18.0699 15.9344 17.6011C16.4032 17.1323 16.6666 16.4964 16.6666 15.8333C16.6666 15.1703 16.4032 14.5344 15.9344 14.0656C15.4655 13.5967 14.8296 13.3333 14.1666 13.3333C13.5035 13.3333 12.8677 13.5967 12.3988 14.0656C11.93 14.5344 11.6666 15.1703 11.6666 15.8333C11.6666 16.4964 11.93 17.1323 12.3988 17.6011C12.8677 18.0699 13.5035 18.3333 14.1666 18.3333ZM25.8333 18.3333C26.4963 18.3333 27.1322 18.0699 27.601 17.6011C28.0699 17.1323 28.3333 16.4964 28.3333 15.8333C28.3333 15.1703 28.0699 14.5344 27.601 14.0656C27.1322 13.5967 26.4963 13.3333 25.8333 13.3333C25.1702 13.3333 24.5343 13.5967 24.0655 14.0656C23.5966 14.5344 23.3333 15.1703 23.3333 15.8333C23.3333 16.4964 23.5966 17.1323 24.0655 17.6011C24.5343 18.0699 25.1702 18.3333 25.8333 18.3333ZM19.9999 33.3333C16.4637 33.3333 13.0723 31.9286 10.5718 29.4281C8.07134 26.9276 6.66659 23.5362 6.66659 20C6.66659 16.4638 8.07134 13.0724 10.5718 10.5719C13.0723 8.07142 16.4637 6.66666 19.9999 6.66666C23.5361 6.66666 26.9275 8.07142 29.428 10.5719C31.9285 13.0724 33.3333 16.4638 33.3333 20C33.3333 23.5362 31.9285 26.9276 29.428 29.4281C26.9275 31.9286 23.5361 33.3333 19.9999 33.3333ZM19.9999 3.33333C10.7833 3.33333 3.33325 10.8333 3.33325 20C3.33325 24.4203 5.0892 28.6595 8.21481 31.7851C9.76245 33.3328 11.5998 34.5604 13.6219 35.398C15.644 36.2356 17.8112 36.6667 19.9999 36.6667C24.4202 36.6667 28.6594 34.9107 31.785 31.7851C34.9106 28.6595 36.6666 24.4203 36.6666 20C36.6666 17.8113 36.2355 15.644 35.3979 13.6219C34.5603 11.5998 33.3327 9.76252 31.785 8.21488C30.2374 6.66724 28.4001 5.43958 26.378 4.602C24.3559 3.76442 22.1886 3.33333 19.9999 3.33333Z" fill="white"/>
</svg>
