<svg width="27" height="27" viewBox="0 0 27 27" fill="none" xmlns="http://www.w3.org/2000/svg">
<g clip-path="url(#clip0_1301_897)">
<path d="M12.6378 17.6101L16.4881 16.9621C16.4881 16.9621 16.3573 18.0098 16.1729 18.445C15.8712 19.1511 15.7224 19.511 15.661 20.1911C15.5645 21.2382 15.7229 22.0028 15.7229 22.0028C15.7229 22.0028 15.9227 21.8914 16.1943 21.9197C16.525 21.9539 16.7325 22.1331 16.727 22.2665C16.7208 22.3855 16.3571 22.3698 16.1572 22.6553C15.9993 22.8809 15.9852 23.2334 15.9941 23.4585C16.0033 23.6854 16.0227 23.9704 15.6213 24.101C15.2185 24.2337 14.6089 24.3865 14.4386 24.2025C14.2704 24.02 13.7086 20.412 13.7086 20.412L12.6378 17.6101Z" fill="#307D31"/>
<path d="M12.4533 16.8211C12.4027 16.966 10.7166 17.5862 10.7166 17.5862C10.7166 17.5862 10.1893 18.0001 10.1487 19.0556C10.1261 19.6272 10.3492 20.7377 10.3142 21.1465C10.2651 21.7319 9.70334 22.1665 9.75651 22.2931C9.80967 22.4198 10.3481 22.3158 10.7327 22.0593C11.6026 21.4797 11.6172 20.5958 11.7937 19.8065C11.9645 19.0474 12.4584 18.5776 12.4584 18.5776C12.4584 18.5776 12.417 19.1145 12.5732 19.6709C12.7066 20.1498 12.9691 20.7437 12.8749 21.3824C12.7846 21.9913 12.5766 22.3853 12.6932 22.4191C12.781 22.4436 13.7243 22.1775 13.9595 21.2691C14.2196 20.2656 14.1152 19.4988 14.2724 18.9088C14.4457 18.2562 14.9333 17.9054 14.9333 17.9054C14.9333 17.9054 15.3506 18.0604 15.9273 18.6261C16.5698 19.2564 17.1078 19.7872 17.4514 20.1111C18.2567 20.8723 19.2077 20.9894 19.2098 20.8366C19.2122 20.5932 18.6671 20.2994 18.4891 19.8556C18.0516 18.7629 18.2812 18.1621 17.8586 17.3388C17.2498 16.1494 16.3329 16.2875 16.0058 16.2836C15.93 16.286 12.4533 16.8211 12.4533 16.8211Z" fill="#5C9823"/>
<path d="M9.69676 10.7019C9.46668 10.5593 6.14384 8.9326 6.14384 8.9326L5.86974 7.63522C5.86974 7.63522 4.90821 6.3992 5.55947 5.23791C6.12525 4.22952 7.13143 4.30964 7.13143 4.30964C7.13143 4.30964 7.50638 3.61782 8.3397 3.42736C9.4048 3.18333 10.0884 3.995 10.0884 3.995L15.0747 3.93734L18.1078 5.22703C18.1078 5.22703 18.4877 5.02585 18.8634 5.20262C19.2548 5.3857 19.231 5.91947 19.233 6.15671C19.2348 6.38309 16.1454 9.88586 16.1454 9.88586L17.513 15.441L16.5043 17.0644C16.5043 17.0644 16.3588 17.2678 16.0063 17.3771C15.8017 17.4404 15.5177 17.4034 15.5177 17.4034L14.3386 15.2935L9.69676 10.7019Z" fill="#96010C"/>
<path d="M14.8383 2.99786L14.1927 3.16248L13.8015 3.62864L14.0957 4.34031C14.0957 4.34031 14.2145 4.89065 13.8251 5.23317C13.4357 5.57568 12.656 6.16294 12.656 6.16294L12.2375 7.24512C12.2375 7.24512 11.8355 7.18723 11.1602 6.97803C10.5288 6.78105 9.66796 6.22916 9.66796 6.22916L8.32766 6.37299C8.32766 6.37299 8.07034 6.39479 7.89721 6.65746C7.64884 7.03859 7.88009 7.71238 8.59185 8.24159C9.27641 8.75022 10.6564 9.27404 10.9706 9.43083C11.2848 9.58763 11.7553 9.77672 12.0201 9.86967C12.2753 9.95889 12.586 10.0963 12.7034 10.0521C12.8204 10.006 12.9269 9.56106 13.4247 9.0616C13.9224 8.56214 14.4187 8.12642 15.2708 7.65154C16.1229 7.17665 16.9296 6.66079 17.1655 6.4451C17.4013 6.22941 16.8364 5.14471 16.3855 4.50058C15.9346 3.85645 14.8485 2.92171 14.8383 2.99786Z" fill="#AF0C1B"/>
<path d="M12.1891 6.56992C12.0178 6.90481 12.1208 7.24212 12.1208 7.24212C12.1208 7.24212 12.6595 7.44819 13.1692 7.53062C14.0932 7.67963 16.0378 7.2497 16.9058 6.65955C17.7739 6.06941 18.1702 5.62229 18.2363 5.15361C18.3133 4.60319 18.2686 3.52653 17.1124 2.89431C15.7875 2.16853 14.1252 2.98577 14.168 3.2285C14.2108 3.47124 14.8785 3.154 15.0339 4.03523C15.1893 4.91646 14.5093 5.58588 13.7423 5.83357C12.9753 6.08126 12.4477 6.06184 12.1891 6.56992Z" fill="#DB132C"/>
<path d="M8.03925 6.51637C8.03925 6.51637 7.88689 6.17688 8.13215 5.83983C8.502 5.32484 9.03158 4.99569 9.29495 4.58652C9.55832 4.17736 9.90338 3.42915 11.0106 3.07432C12.6515 2.5474 13.8496 2.98543 14.2288 3.71656C14.608 4.44769 14.194 4.79455 13.7247 4.88998C13.2555 4.98541 12.9543 4.81 12.1171 5.11179C10.6983 5.62312 10.3286 6.499 10.2097 6.59613C10.0887 6.69182 9.60963 6.51514 8.98895 6.46136C8.54137 6.42239 8.23676 6.50512 8.03925 6.51637Z" fill="#F71538"/>
<path d="M13.7462 10.7206C13.7462 10.7206 13.87 9.67407 14.7352 8.87224C15.6021 8.0701 16.3117 7.92866 17.4557 7.14477C18.5997 6.36087 18.9635 5.91406 19.1393 5.74885C19.3198 5.5792 19.483 5.42527 19.6668 5.63408C19.7849 5.76922 19.7358 6.41628 19.4215 7.09196C19.1005 7.78151 18.7379 8.19366 18.6042 9.30723C18.4262 10.7768 19.4642 11.9014 18.9905 14.2955C18.8368 15.0698 18.2941 15.8492 17.7563 16.3884C17.2184 16.9276 16.3507 17.1803 16.3507 17.1803C16.3507 17.1803 16.6268 16.905 16.6565 16.0655C16.6708 15.653 16.6731 14.9254 16.4439 14.1914C15.7891 12.0924 13.7462 10.7206 13.7462 10.7206Z" fill="#CD0E1F"/>
<path d="M7.03062 11.5964C7.13485 12.0641 7.21561 13.8181 7.74517 15.1448C8.16136 16.1886 9.61428 17.9075 11.8014 18.1022C13.8136 18.2824 15.7755 17.3851 15.7755 17.3851C15.7755 17.3851 16.3202 15.9379 15.5911 14.0969C14.7965 12.0897 12.4427 10.9087 9.8345 10.1462C6.70038 9.22983 5.87527 7.60522 5.87527 7.60522C5.87527 7.60522 4.88347 7.52438 4.79644 8.41933C4.66309 9.79218 6.87335 10.8896 7.03062 11.5964Z" fill="#E2122D"/>
</g>
<defs>
<clipPath id="clip0_1301_897">
<rect width="22.8617" height="22.8617" fill="white" transform="translate(0 4.37012) rotate(-10)"/>
</clipPath>
</defs>
</svg>
