<svg width="24" height="24" viewBox="0 0 24 24" fill="none" xmlns="http://www.w3.org/2000/svg">
<path d="M3.07506 5.94937C3.07506 5.94937 1.86568 6.045 1.70443 6.31687C1.54131 6.58875 1.53193 7.00687 1.53193 7.46625C1.53193 7.9275 1.51318 8.985 1.51318 8.985L1.80193 9.60562C1.80193 9.60562 1.85631 17.5162 1.85631 17.7619C1.85631 18.0056 1.85631 18.3037 2.20881 18.4931C2.56131 18.6825 11.5201 23.01 11.7994 23.1262C12.2213 23.3006 12.4219 23.235 12.4219 23.235L22.3763 6.58687C22.3763 6.58687 22.3444 6.13125 21.9301 6.0225C21.6919 5.9625 3.07506 5.94937 3.07506 5.94937Z" fill="#F5B03E"/>
<path d="M12.315 11.4225C12.1631 11.8406 12.2325 16.1644 12.2587 19.3088C12.285 22.4513 12.1781 23.1019 12.2587 23.2106C12.3394 23.3194 12.5587 23.2144 13.1794 22.9388C14.3325 22.4288 19.8712 19.6875 20.2781 19.4438C20.685 19.2 21.6787 18.6956 21.8419 18.4238C22.005 18.1519 22.0931 15.6225 22.1475 13.5919C22.2019 11.5594 22.2562 9.93376 22.2562 9.93376L22.5 9.20251C22.5 9.20251 22.4475 7.22626 22.4381 7.00876C22.4212 6.64876 22.3819 6.46313 22.29 6.50813C22.1587 6.57001 21.0637 7.46813 18.165 8.87813C16.3444 9.76126 12.42 11.1338 12.315 11.4225Z" fill="#E07F14"/>
<path d="M12.3413 2.10188C11.5294 2.06438 9.30755 3.34875 7.1663 4.05188C5.02505 4.755 1.79255 6.16875 1.76442 6.25125C1.73817 6.33188 3.06567 6.92625 3.91317 7.33313C4.92005 7.815 8.7638 9.63563 9.46692 9.93375C10.1719 10.2319 11.8519 10.9294 12.1219 10.9088C12.5007 10.8825 16.0782 9.4725 17.8932 8.60625C19.7082 7.74 21.9769 6.3975 22.0069 6.07125C22.02 5.925 18.6694 4.67438 16.9988 3.91875C13.7738 2.45813 12.9357 2.13 12.3413 2.10188Z" fill="#FDD717"/>
<path d="M1.52245 9.33189C1.55057 9.68439 1.7437 9.81001 2.23495 10.0238C2.7262 10.2375 12.0131 15.0619 12.2268 15.0619C12.4406 15.0619 12.5043 14.2969 12.2699 14.3175C12.1424 14.3288 9.09182 12.8794 6.24182 11.4319C3.82307 10.2056 1.50745 8.98126 1.50745 8.98126L1.52245 9.33189Z" fill="#E37D14"/>
<path d="M22.5019 9.18564C22.5019 9.18564 12.5851 14.2294 12.4876 14.2781C12.3901 14.3269 12.2344 14.31 12.2344 14.31L12.2269 15.0619C12.2269 15.0619 12.3188 15.0825 12.4219 15.0506C12.4819 15.0319 22.2151 9.99376 22.2582 9.97876C22.3013 9.96376 22.4888 9.85126 22.5282 9.61314C22.5619 9.42189 22.5019 9.18564 22.5019 9.18564Z" fill="#BA5E0D"/>
<path d="M5.41125 18.2662L7.35187 21.1537L8.20125 21.4444C8.20125 21.4444 8.27062 18.2944 8.29874 15.96C8.33812 12.5494 8.32312 9.43875 8.37187 9.2625C8.4525 8.96437 12.2269 7.74 12.2269 7.74C12.2269 7.74 16.4906 9.07687 16.6256 9.375C16.6856 9.50625 16.6387 11.715 16.6256 14.2894C16.6087 17.5406 16.6144 21.2944 16.6144 21.2944C16.6144 21.2944 17.055 21.2925 17.1075 21.1294C17.1619 20.9662 17.3794 19.7081 17.3794 19.7081L19.0331 8.685L19.8731 7.60125L18.7069 5.38125L13.9219 3.02625L12.2775 3.39562L10.4981 3.12375L4.85437 7.17937L5.5125 8.51437L7.12687 9.33749L5.41125 18.2662Z" fill="#AF0F1B"/>
<path d="M17.115 9.26062C17.0119 9.4875 17.0719 21.1781 17.0719 21.1781C17.0719 21.1781 17.5875 20.8931 18.2513 20.5744C18.9113 20.2575 19.3857 20.0606 19.4269 19.8956C19.4682 19.7306 19.5413 8.16937 19.5413 8.16937L17.115 9.26062Z" fill="#DC0D28"/>
<path d="M7.75312 9.01875C7.815 9.08625 7.71375 21.2175 7.58812 21.2456C7.48875 21.27 5.22937 20.2612 5.22937 20.1581C5.22937 20.055 5.41125 8.46187 5.41125 8.46187C5.41125 8.46187 7.56937 8.8125 7.75312 9.01875ZM12.2306 2.67188C11.6062 2.67188 10.9162 2.85 10.7156 3.37312C10.515 3.89625 10.47 4.67438 10.47 5.25563C10.47 5.8125 10.38 7.2375 12.0956 7.215C13.8112 7.1925 13.8619 6.55687 13.8881 5.15438C13.9106 3.98438 13.755 3.41625 13.5994 3.1725C13.4606 2.95313 12.9994 2.67188 12.2306 2.67188Z" fill="#FF2A23"/>
<path d="M11.2388 5.56687C11.6288 5.58937 11.7957 4.73249 12.0957 4.26374C12.3957 3.79687 12.7088 3.48374 12.5963 3.23999C12.5044 3.03749 11.6888 2.97187 11.2482 3.58499C10.9388 4.01812 10.8844 5.54624 11.2388 5.56687Z" fill="#FCC9D2"/>
<path d="M13.7494 3.07874C13.7494 3.07874 14.3025 3.64124 14.4469 4.74374C14.5913 5.84624 14.4244 6.70311 14.4244 6.70311C14.4244 6.70311 17.1731 6.62061 18.1219 6.80249C19.0575 6.98436 19.3838 7.39686 19.3838 7.69686C19.3838 7.99686 18.7688 8.23874 18.1444 8.19374C17.52 8.14874 17.0981 8.11499 17.0194 8.27249C16.9406 8.42999 17.0531 8.67374 17.9213 8.73936C18.7894 8.80686 19.7925 8.68311 20.1038 7.60311C20.415 6.52311 20.4263 4.65187 20.3156 3.30374C20.205 1.95562 19.9613 1.18499 19.3575 0.89249C18.7219 0.586865 17.13 0.53624 15.6263 1.38186C14.1225 2.22749 13.7494 3.07874 13.7494 3.07874Z" fill="#FF2A23"/>
<path d="M16.8638 1.79626C16.6688 1.54501 16.0407 1.55251 15.705 1.94064C15.3488 2.35314 15.27 3.92251 15.7275 4.01251C16.245 4.11376 16.1513 3.26626 16.53 2.74314C16.9013 2.23126 17.0532 2.04189 16.8638 1.79626Z" fill="#FCC9D2"/>
<path d="M10.5712 3.13312C10.5712 3.13312 8.46559 0.678746 6.05997 0.716246C4.61247 0.738746 4.24497 1.57312 4.16622 1.91812C4.08747 2.26312 3.48747 5.69437 4.28809 7.5525C5.08872 9.41062 6.74997 8.92875 7.01059 8.86875C7.34434 8.79 8.05497 8.54625 7.98747 8.28937C7.91997 8.0325 5.55934 8.95687 5.53684 7.89937C5.51434 6.84187 7.20747 6.72937 7.98747 6.70687C8.76747 6.68437 10.1043 6.8625 10.1043 6.8625C10.1043 6.8625 9.86997 5.58187 10.0256 4.66875C10.1812 3.75562 10.5712 3.13312 10.5712 3.13312Z" fill="#FF2A23"/>
<path d="M5.41495 1.60688C5.11495 1.91813 4.9912 3.7125 5.18057 4.60313C5.36995 5.49375 5.53682 5.8725 5.92682 5.79563C6.25307 5.73 6.44995 3.9825 6.60557 3.3675C6.77245 2.71125 7.18495 2.01375 7.01807 1.70813C6.76307 1.23938 5.72807 1.2825 5.41495 1.60688Z" fill="#FCC9D2"/>
</svg>
