<svg width="15" height="15" viewBox="0 0 15 15" fill="none" xmlns="http://www.w3.org/2000/svg">
<path d="M6.60487 11.8269C9.05181 12.3026 11.421 10.7045 11.8967 8.25759C12.3723 5.81065 10.7742 3.44144 8.3273 2.9658C5.88036 2.49016 3.51115 4.08822 3.03551 6.53516C2.55988 8.9821 4.15793 11.3513 6.60487 11.8269Z" fill="url(#paint0_radial_1301_918)"/>
<path d="M6.60487 11.8269C9.05181 12.3026 11.421 10.7045 11.8967 8.25759C12.3723 5.81065 10.7742 3.44144 8.3273 2.9658C5.88036 2.49016 3.51115 4.08822 3.03551 6.53516C2.55988 8.9821 4.15793 11.3513 6.60487 11.8269Z" fill="url(#paint1_radial_1301_918)"/>
<path fill-rule="evenodd" clip-rule="evenodd" d="M3.11652 6.18927C3.72464 6.08998 4.79204 5.76875 5.85878 4.99762C7.2206 4.01339 7.70835 3.30698 7.91534 2.90509C6.85672 2.79939 5.79478 3.07092 4.91682 3.67177C4.03886 4.27262 3.40128 5.16421 3.11652 6.18927Z" fill="url(#paint2_radial_1301_918)"/>
<path fill-rule="evenodd" clip-rule="evenodd" d="M11.9804 7.4156C11.3043 8.2107 10.4376 9.06654 9.29841 9.93769C8.38308 10.6374 7.12453 11.1899 5.84399 11.6093C4.86582 11.2329 4.04928 10.5275 3.53468 9.61448C4.66833 9.21189 5.96416 8.5724 7.4332 7.56062C9.29059 6.2805 10.3926 5.10773 10.8523 4.41216C11.5831 5.24148 11.9844 6.3101 11.9799 7.41551" fill="url(#paint3_radial_1301_918)"/>
<path fill-rule="evenodd" clip-rule="evenodd" d="M11.9804 7.4156C11.3043 8.2107 10.4376 9.06654 9.29841 9.93769C8.38308 10.6374 7.12453 11.1899 5.84399 11.6093C4.86582 11.2329 4.04928 10.5275 3.53468 9.61448C4.66833 9.21189 5.96416 8.5724 7.4332 7.56062C9.29059 6.2805 10.3926 5.10773 10.8523 4.41216C11.5831 5.24148 11.9844 6.3101 11.9799 7.41551" fill="url(#paint4_radial_1301_918)"/>
<path fill-rule="evenodd" clip-rule="evenodd" d="M11.9804 7.4156C11.3043 8.2107 10.4376 9.06654 9.29841 9.93769C8.38308 10.6374 7.12453 11.1899 5.84399 11.6093C4.86582 11.2329 4.04928 10.5275 3.53468 9.61448C4.66833 9.21189 5.96416 8.5724 7.4332 7.56062C9.29059 6.2805 10.3926 5.10773 10.8523 4.41216C11.5831 5.24148 11.9844 6.3101 11.9799 7.41551" fill="url(#paint5_radial_1301_918)"/>
<path fill-rule="evenodd" clip-rule="evenodd" d="M11.9804 7.4156C11.3043 8.2107 10.4376 9.06654 9.29841 9.93769C8.38308 10.6374 7.12453 11.1899 5.84399 11.6093C4.86582 11.2329 4.04928 10.5275 3.53468 9.61448C4.66833 9.21189 5.96416 8.5724 7.4332 7.56062C9.29059 6.2805 10.3926 5.10773 10.8523 4.41216C11.5831 5.24148 11.9844 6.3101 11.9799 7.41551" fill="url(#paint6_radial_1301_918)"/>
<path fill-rule="evenodd" clip-rule="evenodd" d="M14.0424 3.03098C13.8703 2.72911 13.5887 2.58472 13.3334 2.52746C13.0913 2.47327 12.8371 2.48651 12.6088 2.52108C12.1496 2.59074 11.6116 2.77751 11.0835 2.99982C10.6659 3.17785 10.2551 3.37119 9.85175 3.57945C10.2544 3.82812 10.6154 4.13877 10.9213 4.49993C11.1477 4.39114 11.3717 4.28951 11.5882 4.19764C12.0869 3.98793 12.5061 3.85142 12.8037 3.80637C12.8156 3.80428 12.8273 3.80265 12.8388 3.80148C12.8146 3.8523 12.7808 3.91603 12.7311 3.99396C12.5249 4.32063 12.1603 4.72906 11.6673 5.18996C10.6898 6.10475 9.33223 7.11426 8.12242 7.94009C6.95053 8.74121 5.38658 9.66476 4.05145 10.2915C3.379 10.6065 2.7951 10.8327 2.3595 10.9381C2.26686 10.9605 2.18719 10.9764 2.1205 10.9858C2.21429 10.8309 2.37383 10.6312 2.60626 10.384C2.8584 10.1167 3.16015 9.82997 3.48739 9.5248C3.264 9.10178 3.1095 8.64584 3.02969 8.17416L2.75777 8.42793L2.71358 8.46926C2.34916 8.80846 1.9745 9.1584 1.65997 9.49252C1.35373 9.81807 1.05629 10.1769 0.88606 10.5391C0.711383 10.9136 0.610432 11.4487 0.995077 11.9121C1.23848 12.206 1.58407 12.2833 1.83802 12.2975C2.10189 12.3132 2.38808 12.269 2.66552 12.2017C3.22667 12.0663 3.903 11.7969 4.60362 11.468C6.01269 10.8067 7.63715 9.84704 8.85593 9.01429C10.0853 8.17443 11.5058 7.12114 12.5555 6.13937C13.0759 5.65273 13.5364 5.15445 13.831 4.68708C14.0924 4.27234 14.3823 3.6278 14.0424 3.03098Z" fill="url(#paint7_linear_1301_918)"/>
<path fill-rule="evenodd" clip-rule="evenodd" d="M14.0424 3.03098C13.8703 2.72911 13.5887 2.58472 13.3334 2.52746C13.0913 2.47327 12.8371 2.48651 12.6088 2.52108C12.1496 2.59074 11.6116 2.77751 11.0835 2.99982C10.6659 3.17785 10.2551 3.37119 9.85175 3.57945C10.2544 3.82812 10.6154 4.13877 10.9213 4.49993C11.1477 4.39114 11.3717 4.28951 11.5882 4.19764C12.0869 3.98793 12.5061 3.85142 12.8037 3.80637C12.8156 3.80428 12.8273 3.80265 12.8388 3.80148C12.8146 3.8523 12.7808 3.91603 12.7311 3.99396C12.5249 4.32063 12.1603 4.72906 11.6673 5.18996C10.6898 6.10475 9.33223 7.11426 8.12242 7.94009C6.95053 8.74121 5.38658 9.66476 4.05145 10.2915C3.379 10.6065 2.7951 10.8327 2.3595 10.9381C2.26686 10.9605 2.18719 10.9764 2.1205 10.9858C2.21429 10.8309 2.37383 10.6312 2.60626 10.384C2.8584 10.1167 3.16015 9.82997 3.48739 9.5248C3.264 9.10178 3.1095 8.64584 3.02969 8.17416L2.75777 8.42793L2.71358 8.46926C2.34916 8.80846 1.9745 9.1584 1.65997 9.49252C1.35373 9.81807 1.05629 10.1769 0.88606 10.5391C0.711383 10.9136 0.610432 11.4487 0.995077 11.9121C1.23848 12.206 1.58407 12.2833 1.83802 12.2975C2.10189 12.3132 2.38808 12.269 2.66552 12.2017C3.22667 12.0663 3.903 11.7969 4.60362 11.468C6.01269 10.8067 7.63715 9.84704 8.85593 9.01429C10.0853 8.17443 11.5058 7.12114 12.5555 6.13937C13.0759 5.65273 13.5364 5.15445 13.831 4.68708C14.0924 4.27234 14.3823 3.6278 14.0424 3.03098Z" fill="url(#paint8_radial_1301_918)"/>
<path fill-rule="evenodd" clip-rule="evenodd" d="M14.0424 3.03098C13.8703 2.72911 13.5887 2.58472 13.3334 2.52746C13.0913 2.47327 12.8371 2.48651 12.6088 2.52108C12.1496 2.59074 11.6116 2.77751 11.0835 2.99982C10.6659 3.17785 10.2551 3.37119 9.85175 3.57945C10.2544 3.82812 10.6154 4.13877 10.9213 4.49993C11.1477 4.39114 11.3717 4.28951 11.5882 4.19764C12.0869 3.98793 12.5061 3.85142 12.8037 3.80637C12.8156 3.80428 12.8273 3.80265 12.8388 3.80148C12.8146 3.8523 12.7808 3.91603 12.7311 3.99396C12.5249 4.32063 12.1603 4.72906 11.6673 5.18996C10.6898 6.10475 9.33223 7.11426 8.12242 7.94009C6.95053 8.74121 5.38658 9.66476 4.05145 10.2915C3.379 10.6065 2.7951 10.8327 2.3595 10.9381C2.26686 10.9605 2.18719 10.9764 2.1205 10.9858C2.21429 10.8309 2.37383 10.6312 2.60626 10.384C2.8584 10.1167 3.16015 9.82997 3.48739 9.5248C3.264 9.10178 3.1095 8.64584 3.02969 8.17416L2.75777 8.42793L2.71358 8.46926C2.34916 8.80846 1.9745 9.1584 1.65997 9.49252C1.35373 9.81807 1.05629 10.1769 0.88606 10.5391C0.711383 10.9136 0.610432 11.4487 0.995077 11.9121C1.23848 12.206 1.58407 12.2833 1.83802 12.2975C2.10189 12.3132 2.38808 12.269 2.66552 12.2017C3.22667 12.0663 3.903 11.7969 4.60362 11.468C6.01269 10.8067 7.63715 9.84704 8.85593 9.01429C10.0853 8.17443 11.5058 7.12114 12.5555 6.13937C13.0759 5.65273 13.5364 5.15445 13.831 4.68708C14.0924 4.27234 14.3823 3.6278 14.0424 3.03098Z" fill="url(#paint9_radial_1301_918)"/>
<path fill-rule="evenodd" clip-rule="evenodd" d="M14.0424 3.03098C13.8703 2.72911 13.5887 2.58472 13.3334 2.52746C13.0913 2.47327 12.8371 2.48651 12.6088 2.52108C12.1496 2.59074 11.6116 2.77751 11.0835 2.99982C10.6659 3.17785 10.2551 3.37119 9.85175 3.57945C10.2544 3.82812 10.6154 4.13877 10.9213 4.49993C11.1477 4.39114 11.3717 4.28951 11.5882 4.19764C12.0869 3.98793 12.5061 3.85142 12.8037 3.80637C12.8156 3.80428 12.8273 3.80265 12.8388 3.80148C12.8146 3.8523 12.7808 3.91603 12.7311 3.99396C12.5249 4.32063 12.1603 4.72906 11.6673 5.18996C10.6898 6.10475 9.33223 7.11426 8.12242 7.94009C6.95053 8.74121 5.38658 9.66476 4.05145 10.2915C3.379 10.6065 2.7951 10.8327 2.3595 10.9381C2.26686 10.9605 2.18719 10.9764 2.1205 10.9858C2.21429 10.8309 2.37383 10.6312 2.60626 10.384C2.8584 10.1167 3.16015 9.82997 3.48739 9.5248C3.264 9.10178 3.1095 8.64584 3.02969 8.17416L2.75777 8.42793L2.71358 8.46926C2.34916 8.80846 1.9745 9.1584 1.65997 9.49252C1.35373 9.81807 1.05629 10.1769 0.88606 10.5391C0.711383 10.9136 0.610432 11.4487 0.995077 11.9121C1.23848 12.206 1.58407 12.2833 1.83802 12.2975C2.10189 12.3132 2.38808 12.269 2.66552 12.2017C3.22667 12.0663 3.903 11.7969 4.60362 11.468C6.01269 10.8067 7.63715 9.84704 8.85593 9.01429C10.0853 8.17443 11.5058 7.12114 12.5555 6.13937C13.0759 5.65273 13.5364 5.15445 13.831 4.68708C14.0924 4.27234 14.3823 3.6278 14.0424 3.03098Z" fill="url(#paint10_radial_1301_918)"/>
<path fill-rule="evenodd" clip-rule="evenodd" d="M14.0424 3.03098C13.8703 2.72911 13.5887 2.58472 13.3334 2.52746C13.0913 2.47327 12.8371 2.48651 12.6088 2.52108C12.1496 2.59074 11.6116 2.77751 11.0835 2.99982C10.6659 3.17785 10.2551 3.37119 9.85175 3.57945C10.2544 3.82812 10.6154 4.13877 10.9213 4.49993C11.1477 4.39114 11.3717 4.28951 11.5882 4.19764C12.0869 3.98793 12.5061 3.85142 12.8037 3.80637C12.8156 3.80428 12.8273 3.80265 12.8388 3.80148C12.8146 3.8523 12.7808 3.91603 12.7311 3.99396C12.5249 4.32063 12.1603 4.72906 11.6673 5.18996C10.6898 6.10475 9.33223 7.11426 8.12242 7.94009C6.95053 8.74121 5.38658 9.66476 4.05145 10.2915C3.379 10.6065 2.7951 10.8327 2.3595 10.9381C2.26686 10.9605 2.18719 10.9764 2.1205 10.9858C2.21429 10.8309 2.37383 10.6312 2.60626 10.384C2.8584 10.1167 3.16015 9.82997 3.48739 9.5248C3.264 9.10178 3.1095 8.64584 3.02969 8.17416L2.75777 8.42793L2.71358 8.46926C2.34916 8.80846 1.9745 9.1584 1.65997 9.49252C1.35373 9.81807 1.05629 10.1769 0.88606 10.5391C0.711383 10.9136 0.610432 11.4487 0.995077 11.9121C1.23848 12.206 1.58407 12.2833 1.83802 12.2975C2.10189 12.3132 2.38808 12.269 2.66552 12.2017C3.22667 12.0663 3.903 11.7969 4.60362 11.468C6.01269 10.8067 7.63715 9.84704 8.85593 9.01429C10.0853 8.17443 11.5058 7.12114 12.5555 6.13937C13.0759 5.65273 13.5364 5.15445 13.831 4.68708C14.0924 4.27234 14.3823 3.6278 14.0424 3.03098Z" fill="url(#paint11_radial_1301_918)"/>
<path fill-rule="evenodd" clip-rule="evenodd" d="M14.0424 3.03098C13.8703 2.72911 13.5887 2.58472 13.3334 2.52746C13.0913 2.47327 12.8371 2.48651 12.6088 2.52108C12.1496 2.59074 11.6116 2.77751 11.0835 2.99982C10.6659 3.17785 10.2551 3.37119 9.85175 3.57945C10.2544 3.82812 10.6154 4.13877 10.9213 4.49993C11.1477 4.39114 11.3717 4.28951 11.5882 4.19764C12.0869 3.98793 12.5061 3.85142 12.8037 3.80637C12.8156 3.80428 12.8273 3.80265 12.8388 3.80148C12.8146 3.8523 12.7808 3.91603 12.7311 3.99396C12.5249 4.32063 12.1603 4.72906 11.6673 5.18996C10.6898 6.10475 9.33223 7.11426 8.12242 7.94009C6.95053 8.74121 5.38658 9.66476 4.05145 10.2915C3.379 10.6065 2.7951 10.8327 2.3595 10.9381C2.26686 10.9605 2.18719 10.9764 2.1205 10.9858C2.21429 10.8309 2.37383 10.6312 2.60626 10.384C2.8584 10.1167 3.16015 9.82997 3.48739 9.5248C3.264 9.10178 3.1095 8.64584 3.02969 8.17416L2.75777 8.42793L2.71358 8.46926C2.34916 8.80846 1.9745 9.1584 1.65997 9.49252C1.35373 9.81807 1.05629 10.1769 0.88606 10.5391C0.711383 10.9136 0.610432 11.4487 0.995077 11.9121C1.23848 12.206 1.58407 12.2833 1.83802 12.2975C2.10189 12.3132 2.38808 12.269 2.66552 12.2017C3.22667 12.0663 3.903 11.7969 4.60362 11.468C6.01269 10.8067 7.63715 9.84704 8.85593 9.01429C10.0853 8.17443 11.5058 7.12114 12.5555 6.13937C13.0759 5.65273 13.5364 5.15445 13.831 4.68708C14.0924 4.27234 14.3823 3.6278 14.0424 3.03098Z" fill="url(#paint12_radial_1301_918)"/>
<path fill-rule="evenodd" clip-rule="evenodd" d="M14.0424 3.03098C13.8703 2.72911 13.5887 2.58472 13.3334 2.52746C13.0913 2.47327 12.8371 2.48651 12.6088 2.52108C12.1496 2.59074 11.6116 2.77751 11.0835 2.99982C10.6659 3.17785 10.2551 3.37119 9.85175 3.57945C10.2544 3.82812 10.6154 4.13877 10.9213 4.49993C11.1477 4.39114 11.3717 4.28951 11.5882 4.19764C12.0869 3.98793 12.5061 3.85142 12.8037 3.80637C12.8156 3.80428 12.8273 3.80265 12.8388 3.80148C12.8146 3.8523 12.7808 3.91603 12.7311 3.99396C12.5249 4.32063 12.1603 4.72906 11.6673 5.18996C10.6898 6.10475 9.33223 7.11426 8.12242 7.94009C6.95053 8.74121 5.38658 9.66476 4.05145 10.2915C3.379 10.6065 2.7951 10.8327 2.3595 10.9381C2.26686 10.9605 2.18719 10.9764 2.1205 10.9858C2.21429 10.8309 2.37383 10.6312 2.60626 10.384C2.8584 10.1167 3.16015 9.82997 3.48739 9.5248C3.264 9.10178 3.1095 8.64584 3.02969 8.17416L2.75777 8.42793L2.71358 8.46926C2.34916 8.80846 1.9745 9.1584 1.65997 9.49252C1.35373 9.81807 1.05629 10.1769 0.88606 10.5391C0.711383 10.9136 0.610432 11.4487 0.995077 11.9121C1.23848 12.206 1.58407 12.2833 1.83802 12.2975C2.10189 12.3132 2.38808 12.269 2.66552 12.2017C3.22667 12.0663 3.903 11.7969 4.60362 11.468C6.01269 10.8067 7.63715 9.84704 8.85593 9.01429C10.0853 8.17443 11.5058 7.12114 12.5555 6.13937C13.0759 5.65273 13.5364 5.15445 13.831 4.68708C14.0924 4.27234 14.3823 3.6278 14.0424 3.03098Z" fill="url(#paint13_radial_1301_918)"/>
<g filter="url(#filter0_f_1301_918)">
<path d="M13.1105 2.88599C13.0773 2.88765 13.0462 2.90242 13.0239 2.92703C13.0017 2.95165 12.9901 2.9841 12.9918 3.01725C12.9934 3.0504 13.0082 3.08153 13.0328 3.1038C13.0574 3.12606 13.0899 3.13764 13.123 3.13598L13.1105 2.88599ZM8.31306 8.98516C9.2704 8.38378 11.7183 6.61792 13.1855 5.07045L13.0045 4.89875C11.5576 6.42522 9.12808 8.17784 8.18002 8.77339L8.31306 8.98516ZM13.1855 5.07045C13.7981 4.42446 13.9843 3.88304 13.8994 3.48401C13.8128 3.07753 13.4556 2.86902 13.1105 2.88599L13.123 3.13598C13.3638 3.12369 13.5978 3.26647 13.6549 3.53632C13.7141 3.8137 13.5966 4.27375 13.0045 4.89875L13.1855 5.07045Z" fill="url(#paint14_linear_1301_918)"/>
</g>
<defs>
<filter id="filter0_f_1301_918" x="7.68005" y="2.38504" width="6.73865" height="7.10013" filterUnits="userSpaceOnUse" color-interpolation-filters="sRGB">
<feFlood flood-opacity="0" result="BackgroundImageFix"/>
<feBlend mode="normal" in="SourceGraphic" in2="BackgroundImageFix" result="shape"/>
<feGaussianBlur stdDeviation="0.25" result="effect1_foregroundBlur_1301_918"/>
</filter>
<radialGradient id="paint0_radial_1301_918" cx="0" cy="0" r="1" gradientUnits="userSpaceOnUse" gradientTransform="translate(9.54304 4.91471) rotate(127.565) scale(7.86565 7.4873)">
<stop stop-color="#FFB455"/>
<stop offset="1" stop-color="#EB6A38"/>
</radialGradient>
<radialGradient id="paint1_radial_1301_918" cx="0" cy="0" r="1" gradientUnits="userSpaceOnUse" gradientTransform="translate(9.66111 6.30452) rotate(140.632) scale(6.7052)">
<stop offset="0.594" stop-color="#CC5934" stop-opacity="0"/>
<stop offset="1" stop-color="#CC5934"/>
</radialGradient>
<radialGradient id="paint2_radial_1301_918" cx="0" cy="0" r="1" gradientUnits="userSpaceOnUse" gradientTransform="translate(4.65267 4.07758) rotate(23.3625) scale(2.3354 7.9111)">
<stop stop-color="#D9957B"/>
<stop offset="1" stop-color="#FFBC94"/>
</radialGradient>
<radialGradient id="paint3_radial_1301_918" cx="0" cy="0" r="1" gradientUnits="userSpaceOnUse" gradientTransform="translate(11.0739 7.99935) rotate(151.114) scale(5.78035 5.444)">
<stop stop-color="#FFEAC1"/>
<stop offset="1" stop-color="#D4726B"/>
</radialGradient>
<radialGradient id="paint4_radial_1301_918" cx="0" cy="0" r="1" gradientUnits="userSpaceOnUse" gradientTransform="translate(12.3642 6.65903) rotate(139.911) scale(3.33337 1.95198)">
<stop stop-color="#FFE7C2"/>
<stop offset="1" stop-color="#FFE7C2" stop-opacity="0"/>
</radialGradient>
<radialGradient id="paint5_radial_1301_918" cx="0" cy="0" r="1" gradientUnits="userSpaceOnUse" gradientTransform="translate(6.32204 11.7022) rotate(-78.4071) scale(1.51003 2.71899)">
<stop stop-color="#C46867"/>
<stop offset="1" stop-color="#C46867" stop-opacity="0"/>
</radialGradient>
<radialGradient id="paint6_radial_1301_918" cx="0" cy="0" r="1" gradientUnits="userSpaceOnUse" gradientTransform="translate(7.45685 7.1455) rotate(59.1223) scale(0.695011 5.83405)">
<stop stop-color="#FFBD91"/>
<stop offset="1" stop-color="#FFBD91" stop-opacity="0"/>
</radialGradient>
<linearGradient id="paint7_linear_1301_918" x1="7.27891" y1="6.2343" x2="12.6829" y2="9.38583" gradientUnits="userSpaceOnUse">
<stop stop-color="#E6AF22"/>
<stop offset="1" stop-color="#FFFB4B"/>
</linearGradient>
<radialGradient id="paint8_radial_1301_918" cx="0" cy="0" r="1" gradientUnits="userSpaceOnUse" gradientTransform="translate(10.6713 4.58581) rotate(-37.4268) scale(3.69682 1.04281)">
<stop offset="0.101" stop-color="#F39D2B"/>
<stop offset="1" stop-color="#F39D2B" stop-opacity="0"/>
</radialGradient>
<radialGradient id="paint9_radial_1301_918" cx="0" cy="0" r="1" gradientUnits="userSpaceOnUse" gradientTransform="translate(9.72962 3.86183) rotate(-22.3985) scale(3.40625 1.76552)">
<stop stop-color="#F19C20"/>
<stop offset="1" stop-color="#F19C20" stop-opacity="0"/>
</radialGradient>
<radialGradient id="paint10_radial_1301_918" cx="0" cy="0" r="1" gradientUnits="userSpaceOnUse" gradientTransform="translate(1.99946 12.5938) rotate(-83.086) scale(2.19307 8.5585)">
<stop stop-color="#D08E28"/>
<stop offset="1" stop-color="#D08E28" stop-opacity="0"/>
</radialGradient>
<radialGradient id="paint11_radial_1301_918" cx="0" cy="0" r="1" gradientUnits="userSpaceOnUse" gradientTransform="translate(2.5331 10.708) rotate(160.893) scale(1.07466 0.266539)">
<stop stop-color="#E9C441"/>
<stop offset="1" stop-color="#E9AF41" stop-opacity="0"/>
</radialGradient>
<radialGradient id="paint12_radial_1301_918" cx="0" cy="0" r="1" gradientUnits="userSpaceOnUse" gradientTransform="translate(3.57079 9.09022) rotate(135.301) scale(1.73239 0.44677)">
<stop stop-color="#F1D338"/>
<stop offset="1" stop-color="#F1B338" stop-opacity="0"/>
</radialGradient>
<radialGradient id="paint13_radial_1301_918" cx="0" cy="0" r="1" gradientUnits="userSpaceOnUse" gradientTransform="translate(11.4036 4.72118) rotate(137.992) scale(2.93438 0.82041)">
<stop offset="0.154" stop-color="#ECA53B"/>
<stop offset="1" stop-color="#ECA53B" stop-opacity="0"/>
</radialGradient>
<linearGradient id="paint14_linear_1301_918" x1="11.593" y1="6.85894" x2="7.72364" y2="9.24242" gradientUnits="userSpaceOnUse">
<stop stop-color="#FFEF33"/>
<stop offset="1" stop-color="#FFEF33" stop-opacity="0"/>
</linearGradient>
</defs>
</svg>
